<svg width="41" height="40" viewBox="0 0 41 40" fill="none" xmlns="http://www.w3.org/2000/svg">
<g id="Facebook">
<circle id="Ellipse 53" cx="20.1" cy="20" r="20" fill="white"/>
<path id="Vector" fill-rule="evenodd" clip-rule="evenodd" d="M13.1828 18C12.0388 18 11.8 18.2302 11.8 19.3333V21.3333C11.8 22.4365 12.0388 22.6666 13.1828 22.6666H15.9482V30.6667C15.9482 31.7697 16.187 32 17.331 32H20.0964C21.2404 32 21.4791 31.7697 21.4791 30.6667V22.6666H24.5843C25.452 22.6666 25.6755 22.504 25.9139 21.6997L26.5065 19.6996C26.9147 18.3217 26.6631 18 25.1769 18H21.4791V14.6667C21.4791 13.9303 22.0982 13.3333 22.8618 13.3333H26.7973C27.9413 13.3333 28.18 13.1031 28.18 12V9.33333C28.18 8.23022 27.9413 8 26.7973 8H22.8618C19.0435 8 15.9482 10.9848 15.9482 14.6667V18H13.1828Z" fill="#1BC300"/>
</g>
</svg>
