<svg width="40" height="40" viewBox="0 0 40 40" fill="none" xmlns="http://www.w3.org/2000/svg">
<g id="IG">
<circle id="Ellipse 54" cx="20" cy="20" r="20" fill="white"/>
<g id="Group 5">
<path id="Vector" d="M8 20C8 14.3431 8 11.5147 9.75736 9.75736C11.5147 8 14.3431 8 20 8C25.6568 8 28.4853 8 30.2427 9.75736C32 11.5147 32 14.3431 32 20C32 25.6568 32 28.4853 30.2427 30.2427C28.4853 32 25.6568 32 20 32C14.3431 32 11.5147 32 9.75736 30.2427C8 28.4853 8 25.6568 8 20Z" stroke="#1BC300" stroke-width="1.5" stroke-linejoin="round"/>
<path id="Vector_2" d="M25.6842 20.0001C25.6842 23.1395 23.1393 25.6843 20 25.6843C16.8607 25.6843 14.3158 23.1395 14.3158 20.0001C14.3158 16.8608 16.8607 14.3159 20 14.3159C23.1393 14.3159 25.6842 16.8608 25.6842 20.0001Z" stroke="#1BC300" stroke-width="1.5"/>
<path id="Vector_3" d="M26.9576 13.0527H26.9459" stroke="#1BC300" stroke-width="2" stroke-linecap="round" stroke-linejoin="round"/>
</g>
</g>
</svg>
