<svg width="41" height="40" viewBox="0 0 41 40" fill="none" xmlns="http://www.w3.org/2000/svg">
<g id="IN">
<circle id="Ellipse 55" cx="20.3" cy="20" r="20" fill="white"/>
<g id="Group 6">
<path id="Vector" d="M11.3 17H10.7C9.56868 17 9.003 17 8.65152 17.3515C8.30005 17.703 8.30005 18.2686 8.30005 19.4V29.6C8.30005 30.7314 8.30005 31.297 8.65152 31.6485C9.003 32 9.56868 32 10.7 32H11.3C12.4314 32 12.9971 32 13.3486 31.6485C13.7 31.297 13.7 30.7314 13.7 29.6V19.4C13.7 18.2686 13.7 17.703 13.3486 17.3515C12.9971 17 12.4314 17 11.3 17Z" fill="#1BC300"/>
<path id="Vector_2" d="M13.7 10.7C13.7 12.1912 12.4912 13.4 11 13.4C9.50888 13.4 8.30005 12.1912 8.30005 10.7C8.30005 9.20883 9.50888 8 11 8C12.4912 8 13.7 9.20883 13.7 10.7Z" fill="#1BC300"/>
<path id="Vector_3" d="M20.6912 17H19.7C18.5687 17 18.003 17 17.6515 17.3515C17.3 17.703 17.3 18.2686 17.3 19.4V29.6C17.3 30.7314 17.3 31.297 17.6515 31.6485C18.003 32 18.5687 32 19.7 32H20.3C21.4314 32 21.9971 32 22.3486 31.6485C22.7 31.297 22.7 30.7314 22.7 29.6L22.7002 25.4001C22.7002 23.412 23.3338 21.8001 25.2055 21.8001C26.1413 21.8001 26.9 22.606 26.9 23.6001V29.0001C26.9 30.1315 26.9 30.6972 27.2515 31.0486C27.6029 31.4001 28.1687 31.4001 29.3 31.4001H29.8985C31.0296 31.4001 31.5952 31.4001 31.9466 31.0488C32.2981 30.6974 32.2982 30.1318 32.2985 29.0007L32.3002 22.4002C32.3002 19.418 29.4637 17.0003 26.6562 17.0003C25.0579 17.0003 23.6321 17.7837 22.7002 19.0088C22.7 18.2527 22.7 17.8747 22.5359 17.594C22.4318 17.4162 22.2838 17.2682 22.106 17.1642C21.8254 17 21.4474 17 20.6912 17Z" fill="#1BC300"/>
</g>
</g>
</svg>
