<svg width="80" height="81" viewBox="0 0 80 81" fill="none" xmlns="http://www.w3.org/2000/svg">
<g id="play">
<path id="Vector" d="M40 80.9292C62.0914 80.9292 80 63.0206 80 40.9292C80 18.8378 62.0914 0.929199 40 0.929199C17.9086 0.929199 0 18.8378 0 40.9292C0 63.0206 17.9086 80.9292 40 80.9292Z" fill="white"/>
<path id="Vector_2" d="M53.8124 42.5084C53.2064 45.0152 50.3428 46.7868 44.6156 50.33C39.0788 53.7548 36.3108 55.4676 34.0796 54.7792C33.1572 54.4944 32.3172 53.954 31.6393 53.2092C30 51.4084 30 47.9152 30 40.9292C30 33.9432 30 30.4499 31.6393 28.649C32.3172 27.9044 33.1572 27.3639 34.0796 27.0793C36.3108 26.391 39.0788 28.1035 44.6156 31.5285C50.3428 35.0716 53.2064 36.8432 53.8124 39.35C54.0624 40.3848 54.0624 41.4736 53.8124 42.5084Z" fill="#1BC300"/>
</g>
</svg>
