<svg width="119" height="87" viewBox="0 0 119 87" fill="none" xmlns="http://www.w3.org/2000/svg">
<g id="SHop">
<path id="Vector" d="M7.60607 36.0155L9.72632 22.8037C12.2323 7.18802 13.4852 -0.619716 18.4471 -5.24251C23.409 -9.86523 30.5366 -9.86523 44.7917 -9.86523H74.1965C88.4515 -9.86523 95.579 -9.86523 100.541 -5.24251C105.503 -0.619716 106.756 7.18802 109.262 22.8037L111.382 36.0155C114.85 57.6244 116.584 68.4286 111.245 75.5241C105.906 82.6202 96.0422 82.6202 76.3166 82.6202H42.6714C22.9455 82.6202 13.0826 82.6202 7.74359 75.5241C2.4046 68.4286 4.13846 57.6244 7.60607 36.0155Z" fill="white" stroke="white" stroke-width="7"/>
<path id="Vector_2" d="M33.3708 2.46624L34.619 -16.0935C35.5512 -29.9544 46.4102 -40.6936 59.4937 -40.6936C72.5772 -40.6936 83.4362 -29.9544 84.3685 -16.0935L85.6166 2.46624" stroke="white" stroke-width="7" stroke-linecap="round"/>
</g>
</svg>
